<svg xmlns:xlink="http://www.w3.org/1999/xlink" xmlns="http://www.w3.org/2000/svg" fill="none" viewBox="0 0 24 24" stroke-width="1.5" stroke="currentColor" aria-hidden="true" data-slot="icon" class="text-gray-300 h-5 w-5 flex-shrink-0 ltr:mr-3 rtl:ml-3" width="24"  height="24" ><path stroke-linecap="round" stroke-linejoin="round" d="M2.25 13.5h3.86a2.25 2.25 0 0 1 2.012 1.244l.256.512a2.25 2.25 0 0 0 2.013 1.244h3.218a2.25 2.25 0 0 0 2.013-1.244l.256-.512a2.25 2.25 0 0 1 2.013-1.244h3.859m-19.5.338V18a2.25 2.25 0 0 0 2.25 2.25h15A2.25 2.25 0 0 0 21.75 18v-4.162c0-.224-.034-.447-.1-.661L19.24 5.338a2.25 2.25 0 0 0-2.15-1.588H6.911a2.25 2.25 0 0 0-2.15 1.588L2.35 13.177a2.25 2.25 0 0 0-.1.661Z" stroke="#D1D5DB" fill="none" stroke-width="1.5px"></path></svg>